<?xml version="1.0" standalone="no"?>
<!DOCTYPE svg PUBLIC "-//W3C//DTD SVG 20010904//EN"
 "http://www.w3.org/TR/2001/REC-SVG-20010904/DTD/svg10.dtd">
<svg version="1.0" xmlns="http://www.w3.org/2000/svg"
 width="376.000000pt" height="282.000000pt" viewBox="0 0 376.000000 282.000000"
 preserveAspectRatio="xMidYMid meet">

<g transform="translate(0.000000,282.000000) scale(0.100000,-0.100000)"
fill="#000000" stroke="none">
<path d="M1282 1998 l3 -303 150 0 150 0 3 178 2 177 435 0 435 0 0 125 0 125
-590 0 -590 0 2 -302z"/>
<path d="M593 1598 c-5 -7 -46 -110 -91 -228 -44 -118 -84 -223 -87 -232 -6
-14 -2 -18 19 -18 14 0 26 5 26 10 0 6 6 10 13 10 8 0 20 21 28 48 l15 47 106
3 106 3 19 -58 c19 -56 21 -58 58 -61 33 -3 37 -1 30 15 -4 10 -42 111 -85
225 -43 113 -83 216 -90 227 -12 23 -52 28 -67 9z m71 -192 c19 -55 33 -103
30 -108 -7 -11 -144 -10 -144 1 0 14 72 212 76 209 1 -2 19 -48 38 -102z"/>
<path d="M1035 1596 c-44 -19 -85 -72 -85 -107 0 -69 53 -117 169 -154 67 -22
101 -54 101 -95 0 -49 -30 -70 -99 -70 -65 0 -107 23 -113 63 -2 18 -10 23
-41 25 -36 3 -38 2 -32 -20 18 -62 85 -112 165 -123 94 -13 190 51 190 127 0
65 -49 110 -163 151 -84 31 -107 50 -107 92 0 39 25 64 73 72 56 9 104 -12
119 -53 11 -30 16 -35 42 -32 16 2 31 8 33 14 5 15 -37 73 -70 98 -34 25 -138
33 -182 12z"/>
<path d="M1419 1536 c134 -247 121 -213 121 -320 l0 -96 40 0 40 0 0 97 0 96
75 143 c41 78 75 145 75 148 0 3 -15 6 -33 6 -32 0 -34 -3 -87 -111 -30 -61
-61 -115 -67 -121 -10 -8 -27 18 -70 108 l-58 119 -39 3 -38 3 41 -75z"/>
<path d="M1890 1365 l0 -245 35 0 35 0 0 105 0 104 103 3 c101 3 102 3 102 28
0 25 -1 25 -102 28 l-103 3 0 79 0 80 120 0 120 0 0 30 0 30 -155 0 -155 0 0
-245z"/>
<path d="M2420 1591 c-156 -82 -156 -377 0 -455 75 -38 168 -20 223 44 43 50
57 98 57 192 0 59 -5 84 -26 126 -49 99 -164 141 -254 93z m139 -54 c37 -18
61 -67 68 -140 12 -128 -32 -213 -113 -223 -49 -6 -94 20 -117 69 -20 42 -23
160 -5 219 22 75 100 110 167 75z"/>
<path d="M2959 1597 c-44 -21 -77 -52 -101 -98 -33 -64 -33 -203 1 -272 25
-52 74 -92 134 -108 57 -15 138 12 178 60 53 64 73 177 48 276 -13 53 -70 122
-116 141 -39 17 -108 17 -144 1z m126 -59 c44 -20 67 -79 67 -172 0 -133 -39
-191 -128 -191 -80 0 -118 60 -117 185 0 130 37 188 120 189 18 1 44 -4 58
-11z"/>
<path d="M20 1360 l0 -240 150 0 150 0 0 25 0 25 -120 0 -120 0 0 85 0 85 105
0 105 0 0 30 0 30 -105 0 -105 0 0 75 0 75 120 0 120 0 0 25 0 25 -150 0 -150
0 0 -240z"/>
<path d="M3370 1360 l0 -240 89 0 c56 0 102 5 125 15 55 23 120 95 136 149 14
52 8 168 -9 174 -6 2 -11 10 -11 18 0 19 -65 84 -85 84 -8 0 -15 5 -15 10 0 6
-9 10 -20 10 -11 0 -20 5 -20 10 0 6 -38 10 -95 10 l-95 0 0 -240z m223 165
c40 -26 57 -74 57 -159 0 -132 -42 -186 -147 -186 l-53 0 0 186 0 187 59 -6
c32 -2 70 -12 84 -22z"/>
<path d="M1280 785 l0 -245 590 0 590 0 0 125 0 125 -435 0 -435 0 0 120 0
120 -155 0 -155 0 0 -245z"/>
</g>
</svg>
